<svg xmlns="http://www.w3.org/2000/svg" width="25" height="23" viewBox="0 0 25 23" version="1.1"><g stroke="none" stroke-width="1" fill="none" fill-rule="evenodd" stroke-linecap="round" stroke-linejoin="round"><g transform="translate(-8.000000, -17.000000)"><g transform="translate(8.000000, 17.000000)"><g stroke-width="1.5"><path d="M18.72 10.43L20.26 13.75 23.26 13.75C23.67 13.73 24.01 14.05 24.02 14.45 24.03 14.67 23.94 14.89 23.78 15.03L21.18 17.59 22.62 20.91C22.79 21.31 22.6 21.77 22.2 21.93 21.97 22.03 21.71 22.01 21.5 21.89L18.01 19.93 14.53 21.89C14.15 22.11 13.67 21.98 13.45 21.6 13.33 21.39 13.31 21.14 13.41 20.91L14.85 17.6 12.25 15.03C11.95 14.77 11.91 14.3 12.18 14 12.33 13.83 12.54 13.74 12.76 13.75L15.76 13.75 17.31 10.43C17.51 10.04 18 9.89 18.39 10.09 18.53 10.17 18.65 10.29 18.72 10.43Z" stroke="#FF6843"/><path d="M12 19.25L3.75 19.25C2.09 19.25 0.75 17.91 0.75 16.25L0.75 7.25C0.75 5.59 2.09 4.25 3.75 4.25L18.75 4.25C20.41 4.25 21.75 5.59 21.75 7.25L21.75 10.25" stroke="#004F6D"/><path d="M7.5 4.25L7.5 1.92C7.5 1.27 8.17 0.75 9 0.75L13.5 0.75C14.33 0.75 15 1.27 15 1.92L15 4.25" stroke="#004F6D"/></g></g></g></g></svg>