<svg xmlns="http://www.w3.org/2000/svg" width="24" height="24" viewBox="0 0 24 24" version="1.1"><g stroke="none" stroke-width="1" fill="none" fill-rule="evenodd" stroke-linecap="round" stroke-linejoin="round"><g transform="translate(-58.000000, -19.000000)"><g transform="translate(58.000000, 19.000000)"><path d="M15.75 9.75L11.77 15.06C11.52 15.39 11.05 15.46 10.72 15.21 10.69 15.19 10.66 15.16 10.64 15.14L8.25 12.75" stroke="#FF6843" stroke-width="1.5"/><path d="M10.73 1.36C11.29 0.66 12.32 0.54 13.02 1.11 13.11 1.18 13.2 1.27 13.27 1.36L14.78 3.24C15.13 3.67 15.68 3.9 16.23 3.84L18.63 3.58C19.52 3.48 20.33 4.12 20.43 5.02 20.44 5.14 20.44 5.26 20.43 5.38L20.17 7.78C20.11 8.33 20.33 8.88 20.77 9.22L22.65 10.74C23.35 11.3 23.46 12.33 22.9 13.03 22.82 13.12 22.74 13.2 22.65 13.28L20.76 14.78C20.33 15.13 20.1 15.67 20.16 16.23L20.42 18.63C20.52 19.52 19.88 20.33 18.98 20.43 18.86 20.44 18.74 20.44 18.62 20.43L16.22 20.17C15.67 20.11 15.12 20.33 14.78 20.77L13.27 22.64C12.71 23.34 11.68 23.45 10.98 22.89 10.89 22.82 10.8 22.73 10.73 22.64L9.22 20.76C8.87 20.33 8.32 20.1 7.77 20.16L5.37 20.42C4.48 20.52 3.67 19.88 3.57 18.99 3.56 18.86 3.56 18.74 3.57 18.62L3.83 16.22C3.89 15.67 3.67 15.12 3.23 14.77L1.35 13.26C0.65 12.7 0.54 11.67 1.1 10.97 1.18 10.88 1.26 10.8 1.35 10.72L3.23 9.21C3.67 8.86 3.89 8.32 3.83 7.77L3.57 5.37C3.47 4.47 4.12 3.67 5.01 3.57 5.13 3.55 5.25 3.55 5.37 3.57L7.77 3.83C8.32 3.89 8.87 3.66 9.22 3.23L10.73 1.36Z" stroke="#004F6D" stroke-width="1.5"/></g></g></g></svg>