<?xml version="1.0" encoding="UTF-8"?>
<svg width="48px" height="42px" viewBox="0 0 48 42" version="1.1" xmlns="http://www.w3.org/2000/svg" xmlns:xlink="http://www.w3.org/1999/xlink">
    <!-- Generator: Sketch 63.1 (92452) - https://sketch.com -->
    <title>Group</title>
    <desc>Created with Sketch.</desc>
    <g id="Page-1" stroke="none" stroke-width="1" fill="none" fill-rule="evenodd" stroke-linecap="round" stroke-linejoin="round">
        <g id="Group" transform="translate(1.000000, 1.000000)" stroke-width="1.67">
            <g id="Group-8">
                <path d="M3.93981481,24.5744681 L3.93981481,3.72340426 C3.93981481,2.07830075 5.28933828,0.744680851 6.95405983,0.744680851 L40.110755,0.744680851 C41.7754765,0.744680851 43.125,2.07830075 43.125,3.72340426 L43.125,24.5744681" id="Path" stroke="#004F6D"></path>
                <path d="M28.2914955,30.5319149 C27.2283545,32.4611618 25.249586,33.6518171 23.1064815,33.6518171 C20.963377,33.6518171 18.9846085,32.4611618 17.9214675,30.5319149 L0.532407407,30.5319149 L0.532407407,33.6524823 C0.532407407,37.0993658 3.22754267,39.893617 6.55216049,39.893617 L39.6608025,39.893617 C42.9854203,39.893617 45.6805556,37.0993658 45.6805556,33.6524823 L45.6805556,30.5319149 L28.2914955,30.5319149 Z" id="Path" stroke="#004F6D"></path>
                <path d="M23.5322423,22.0212766 L16.2719476,14.6696475 C14.96422,13.4010947 14.6404504,11.462221 15.4684031,9.85767215 L15.4684031,9.85767215 C16.08577,8.65906206 17.2591685,7.82162632 18.6219508,7.60703563 C19.9847331,7.39244494 21.3707067,7.82686881 22.3468011,8.77456429 L23.5322423,9.92519414 L24.7176834,8.77456429 C25.6940517,7.82688158 27.080209,7.39248507 28.4431804,7.60706126 C29.8061518,7.82163744 30.9797898,8.65902928 31.5975012,9.85767215 L31.5975012,9.85767215 C32.4241767,11.4626442 32.0999201,13.4010095 30.792537,14.6696475 L23.5322423,22.0212766 Z" id="Path" stroke="#FF6843"></path>
            </g>
        </g>
    </g>
</svg>