<?xml version="1.0" encoding="utf-8"?>
<!-- Generator: Adobe Illustrator 22.0.1, SVG Export Plug-In . SVG Version: 6.00 Build 0)  -->
<svg version="1.1" id="Layer_1" xmlns="http://www.w3.org/2000/svg" xmlns:xlink="http://www.w3.org/1999/xlink" x="0px" y="0px"
	 viewBox="0 0 25.7 38.7" style="enable-background:new 0 0 25.7 38.7;" xml:space="preserve">
<style type="text/css">
	.st0{fill:#FF6843;}
	.st1{fill:#004F6D;}
</style>
<desc>Created with Sketch.</desc>
<g id="Page-1">
	<g id="Group" transform="translate(7.000000, 12.000000)">
		
			<rect id="Rectangle-path" x="1.3" y="0.6" transform="matrix(0.9928 -0.1202 0.1202 0.9928 -0.9961 0.3769)" class="st0" width="2.7" height="15.7"/>
		
			<rect id="Rectangle-path_1_" x="0.3" y="7.1" transform="matrix(0.12 -0.9928 0.9928 0.12 -1.0154 15.7458)" class="st0" width="16.2" height="2.6"/>
	</g>
	<path id="Shape" class="st1" d="M18.2,30H5.4l0.1-1.4c0.1-1.1-0.1-3.2-0.8-4.1C0.1,18.5,0,12.7,0,12.6C0,5.7,5.6,0,12.5,0
		C19.4,0,25,5.7,25,12.6c0,0.1-0.1,5.8-4.8,11.9c-0.7,0.9-0.8,3-0.7,4.1l0.1,1.4L18.2,30z M8.1,27.3h8.7c0.1-1.3,0.3-3.2,1.3-4.4
		c4-5.3,4.2-10.2,4.2-10.3c0-5.5-4.4-10-9.9-10s-9.9,4.5-9.9,10c0,0,0.2,5,4.2,10.2C7.8,24.2,8.1,26,8.1,27.3z"/>
	<rect id="Rectangle-path_2_" x="7" y="31" class="st1" width="12" height="3"/>
	<rect id="Rectangle-path_3_" x="8" y="35" class="st1" width="9" height="3"/>
</g>
</svg>
