<?xml version="1.0" encoding="utf-8"?>
<!-- Generator: Adobe Illustrator 22.0.1, SVG Export Plug-In . SVG Version: 6.00 Build 0)  -->
<svg version="1.1" id="Layer_1" xmlns="http://www.w3.org/2000/svg" xmlns:xlink="http://www.w3.org/1999/xlink" x="0px" y="0px"
	 viewBox="0 0 44 44" style="enable-background:new 0 0 44 44;" xml:space="preserve">
<style type="text/css">
	.st0{fill:#F1C42D;}
	.st1{fill:#FF6843;}
</style>
<title>Group 16 Copy</title>
<desc>Created with Sketch.</desc>
<path id="Fill-1" class="st0" d="M36.7,22.3c0,8.1-6.4,14.7-14.2,14.7S8.3,30.3,8.3,22.3S14.6,7.6,22.5,7.6S36.7,14.2,36.7,22.3"/>
<path id="Fill-3" class="st1" d="M38.4,27.7l5-5.6l-5-5.6L39.3,9l-7.2-1.4l-3.5-6.7L22,4.1l-6.6-3.3L12,7.6L4.8,9l0.9,7.6l-5,5.6
	l5,5.6l-0.9,7.6l7.2,1.4l3.5,6.7l6.6-3.3l6.6,3.3l3.5-6.7l7.2-1.4l-0.1-0.7L38.4,27.7z M22.1,36.5c-7.6,0-13.7-6.4-13.7-14.4
	c0-7.9,6.1-14.4,13.7-14.4s13.7,6.4,13.7,14.4C35.7,30.1,29.6,36.5,22.1,36.5z"/>
<path id="Fill-10" class="st0" d="M22.1,9.6c-6.6,0-11.9,5.6-11.9,12.5c0,6.9,5.3,12.5,11.9,12.5c6.6,0,11.9-5.6,11.9-12.5
	C34,15.2,28.7,9.6,22.1,9.6"/>
</svg>
