<svg xmlns="http://www.w3.org/2000/svg" version="1.1" x="0" y="0" viewBox="0 0 24 24" xml:space="preserve">
  <style type="text/css">
    
	.st0{fill:none;stroke:#004F6D;stroke-width:1.5;stroke-linecap:round;stroke-linejoin:round;}
	.st1{fill:#FFFFFF;}
	.st2{fill:none;stroke:#FF6843;stroke-width:1.5;stroke-linecap:round;stroke-linejoin:round;}

  </style>
  <g transform="translate(-260.000000, -13.000000)">
    <g transform="translate(260.000000, 13.000000)">
      <path class="st0" d="M0.8 14.2v9"/>
      <path class="st0" d="M15.8 21.8c0-1.7-1.3-3-3-3H9c0-1.7-1.3-3-3-3H0.8v6H15.8z"/>
      <path class="st0" d="M6 18.8h3"/>
      <path class="st1" d="M12.7 15.7l1.5-0.9 5.4 3.1c0.1 0.1 0.2 0 0.3-0.1 0 0 0-0.1 0-0.1l-1.3-6.1 4.6-4.2c0.1-0.1 0.1-0.2 0-0.3 0 0-0.1-0.1-0.1-0.1l-6.2-0.6 -2.5-5.7c0-0.1-0.2-0.1-0.2-0.1 0 0-0.1 0.1-0.1 0.1l-2.5 5.7L5.3 7.2c-0.1 0-0.2 0.1-0.2 0.2 0 0 0 0.1 0.1 0.1l4.7 4.2 -0.3 1.5"/>
      <path class="st2" d="M12.7 15.7l1.5-0.9 5.4 3.1c0.1 0.1 0.2 0 0.3-0.1 0 0 0-0.1 0-0.1l-1.3-6.1 4.6-4.2c0.1-0.1 0.1-0.2 0-0.3 0 0-0.1-0.1-0.1-0.1l-6.2-0.6 -2.5-5.7c0-0.1-0.2-0.1-0.2-0.1 0 0-0.1 0.1-0.1 0.1l-2.5 5.7L5.3 7.2c-0.1 0-0.2 0.1-0.2 0.2 0 0 0 0.1 0.1 0.1l4.7 4.2 -0.3 1.5"/>
    </g>
  </g>
</svg>