<svg xmlns="http://www.w3.org/2000/svg" width="24" height="24" viewBox="0 0 24 24" version="1.1"><g stroke="none" stroke-width="1" fill="none" fill-rule="evenodd" stroke-linecap="round" stroke-linejoin="round"><g transform="translate(-378.000000, -19.000000)"><g transform="translate(378.000000, 19.000000)"><path d="M12 0.75C18.21 0.75 23.25 5.79 23.25 12 23.25 18.21 18.21 23.25 12 23.25 5.79 23.25 0.75 18.21 0.75 12 0.75 5.79 5.79 0.75 12 0.75Z" stroke="#004F6D" stroke-width="1.5"/><path d="M8.25 8.63C8.46 8.63 8.63 8.79 8.63 9 8.63 9.21 8.46 9.38 8.25 9.38 8.04 9.38 7.88 9.21 7.88 9 7.88 8.79 8.04 8.63 8.25 8.63" stroke="#004F6D" stroke-width="1.5"/><path d="M15.75 8.63C15.96 8.63 16.13 8.79 16.13 9 16.13 9.21 15.96 9.38 15.75 9.38 15.54 9.38 15.38 9.21 15.38 9 15.38 8.79 15.54 8.63 15.75 8.63" stroke="#004F6D" stroke-width="1.5"/><path d="M18.05 15C16.39 18.34 12.34 19.71 9 18.05 7.68 17.4 6.6 16.32 5.95 15" stroke="#FF6843" stroke-width="1.5"/></g></g></g></svg>